<svg version="1.1" id="Layer_1" xmlns="http://www.w3.org/2000/svg" xmlns:xlink="http://www.w3.org/1999/xlink" x="0px" y="0px"
	 width="100%" viewBox="0 0 500 500" enable-background="new 0 0 500 500" xml:space="preserve">
<path fill="#000000" opacity="1.000000" stroke="none" 
	d="
M345.000000,501.000000 
	C230.000031,501.000000 115.500053,501.000000 1.000062,501.000000 
	C1.000041,334.333405 1.000041,167.666794 1.000021,1.000151 
	C167.666550,1.000101 334.333099,1.000101 500.999756,1.000050 
	C500.999817,167.666519 500.999817,334.333038 500.999908,500.999786 
	C449.166656,501.000000 397.333344,501.000000 345.000000,501.000000 
M141.947464,330.393494 
	C146.491760,322.570953 151.080246,314.773682 155.570557,306.920288 
	C163.431091,293.172455 171.206329,279.375854 179.064514,265.626648 
	C185.886887,253.689743 192.741455,241.770950 199.641312,229.878693 
	C209.052811,213.657486 218.551971,197.487122 227.955063,181.261063 
	C235.826019,167.678848 243.613037,154.047989 251.499069,140.331070 
	C287.396667,202.556625 323.127472,264.493042 359.187500,327.000153 
	C343.975494,327.000153 329.538513,327.000153 315.101532,327.000153 
	C272.945129,327.000153 230.788727,326.983124 188.632477,327.060181 
	C186.883743,327.063385 185.213379,326.245758 183.603928,329.209137 
	C178.630051,338.367279 172.530457,346.907288 167.097458,355.827087 
	C165.521286,358.414856 164.716385,361.472412 163.360870,364.798126 
	C248.905518,364.798126 333.335083,364.798126 418.205688,364.798126 
	C417.883850,362.989014 418.013245,361.194031 417.265045,359.910675 
	C411.396698,349.844879 405.377289,339.866852 399.372223,329.881134 
	C385.775421,307.271393 372.031891,284.748718 358.590363,262.047119 
	C346.468903,241.575027 334.485809,221.016037 322.776367,200.306168 
	C308.988464,175.920197 295.539795,151.342163 281.984253,126.825157 
	C272.423798,109.533775 262.902985,92.220284 253.436798,74.877205 
	C252.029236,72.298447 251.118820,71.985695 249.613235,74.791237 
	C246.167542,81.211983 242.549240,87.539948 239.014282,93.912941 
	C232.108231,106.363503 225.260162,118.846550 218.287552,131.259674 
	C215.329178,136.526413 211.946075,141.557632 209.060913,146.861740 
	C204.685654,154.905212 200.693893,163.157410 196.312698,171.197495 
	C193.422684,176.501053 189.909241,181.467758 187.073105,186.797195 
	C181.401016,197.455750 176.454834,208.522751 170.395660,218.948441 
	C158.199921,239.932983 145.474167,260.609802 132.939606,281.397034 
	C119.145050,304.273773 105.298370,327.119141 91.525337,350.008850 
	C88.731621,354.651794 86.165047,359.431396 83.142990,364.767334 
	C96.658180,364.767334 109.092583,364.767334 121.295433,364.767334 
	C128.062134,353.459290 134.781830,342.229767 141.947464,330.393494 
M359.407379,377.999847 
	C345.918762,377.999908 332.429993,377.972168 318.941650,378.033691 
	C317.177429,378.041748 315.360352,378.313934 313.661530,378.794891 
	C305.300232,381.162323 297.066803,384.068878 288.605560,385.973694 
	C277.868225,388.390961 267.026886,390.920898 256.101562,391.798706 
	C237.966782,393.255768 220.505554,388.904297 203.385529,383.144958 
	C197.588837,381.194885 191.686813,378.474060 185.747879,378.237091 
	C168.970551,377.567627 152.149139,378.002960 134.129730,378.002960 
	C135.329086,380.300232 135.761780,382.362213 137.030594,383.348511 
	C142.914429,387.922272 149.313339,391.861328 155.003082,396.650940 
	C166.279297,406.143250 179.502869,412.063690 192.726608,417.965637 
	C212.943802,426.988953 234.181152,429.681122 256.290894,429.292725 
	C271.401733,429.027252 285.883545,426.593231 299.904480,421.810669 
	C315.051239,416.644043 329.464111,409.526733 342.427490,399.971405 
	C351.330536,393.408936 359.828674,386.297180 368.507782,379.430939 
	C368.239716,378.953888 367.971680,378.476837 367.703644,377.999786 
	C365.258423,377.999786 362.813202,377.999786 359.407379,377.999847 
M92.053734,245.844559 
	C91.702507,250.600525 91.015228,255.360199 91.067566,260.111725 
	C91.189720,271.200195 91.031693,282.354004 92.228775,293.346100 
	C93.002426,300.450104 95.971062,307.315063 97.956062,314.287140 
	C98.461807,314.195374 98.967545,314.103607 99.473289,314.011841 
	C102.527527,306.943268 105.694031,299.920685 108.612839,292.796631 
	C114.832993,277.614807 121.361603,262.694061 125.319862,246.516510 
	C133.672989,212.376999 151.493820,184.073822 181.726562,164.607147 
	C184.413223,162.877213 186.940475,160.385544 188.604172,157.672653 
	C194.856735,147.477005 200.771561,137.072098 206.710037,126.686783 
	C209.942307,121.034126 212.967575,115.263123 216.444901,108.887863 
	C214.820206,109.103516 213.993683,109.058838 213.289185,109.330513 
	C205.911469,112.175568 198.549118,115.060699 191.190521,117.955078 
	C173.185898,125.036865 157.180176,135.525208 142.712067,148.111893 
	C134.890778,154.916092 127.883377,162.896103 121.630836,171.191391 
	C116.087051,178.546371 111.589371,186.823486 107.525543,195.131607 
	C99.815117,210.894882 94.694145,227.554901 92.053734,245.844559 
M372.560486,229.054062 
	C379.907623,258.506348 390.362762,286.804749 404.293579,314.614563 
	C405.670715,311.170654 406.976135,308.292450 407.984497,305.313629 
	C411.328827,295.434021 411.910522,285.212677 412.091217,274.852417 
	C412.336273,260.800537 411.353546,246.885696 408.556030,233.149734 
	C405.213165,216.736206 399.138763,201.246048 390.888824,186.711166 
	C383.112152,173.010193 373.571777,160.428802 361.703369,150.104340 
	C346.967041,137.285065 330.812805,126.285927 312.794312,118.436516 
	C304.495819,114.821434 295.889221,111.913605 286.064514,108.167328 
	C292.609619,119.803223 298.021423,130.115479 304.089844,140.025650 
	C310.647095,150.734085 314.720428,163.507202 327.528015,169.357239 
	C329.635712,170.319946 331.271545,172.432709 332.952759,174.180145 
	C334.715576,176.012375 336.099854,178.227417 337.949585,179.953690 
	C342.652344,184.342636 348.212219,187.998611 352.183899,192.947281 
	C360.736267,203.603394 367.188782,215.617920 372.560486,229.054062 
M209.565720,292.002289 
	C240.620102,292.002289 271.674469,292.002289 303.410370,292.002289 
	C302.429260,290.134399 301.850952,288.838501 301.106598,287.646271 
	C293.401367,275.305450 285.729279,262.943237 277.928040,250.663223 
	C270.030396,238.231506 261.981445,225.895981 254.040787,213.491440 
	C252.805023,211.560989 251.429108,209.715027 249.098785,211.533432 
	C246.898605,213.250275 244.652420,215.231445 243.241562,217.584946 
	C232.701202,235.167801 222.369537,252.875702 211.958908,270.536438 
	C207.888199,277.442047 203.782654,284.327179 199.229904,292.002289 
	C203.042114,292.002289 205.816406,292.002289 209.565720,292.002289 
z"/>
<path fill="#FFD700" opacity="1.000000" stroke="none" 
	d="
M141.724487,330.696899 
	C134.781830,342.229767 128.062134,353.459290 121.295433,364.767334 
	C109.092583,364.767334 96.658180,364.767334 83.142990,364.767334 
	C86.165047,359.431396 88.731621,354.651794 91.525337,350.008850 
	C105.298370,327.119141 119.145050,304.273773 132.939606,281.397034 
	C145.474167,260.609802 158.199921,239.932983 170.395660,218.948441 
	C176.454834,208.522751 181.401016,197.455750 187.073105,186.797195 
	C189.909241,181.467758 193.422684,176.501053 196.312698,171.197495 
	C200.693893,163.157410 204.685654,154.905212 209.060913,146.861740 
	C211.946075,141.557632 215.329178,136.526413 218.287552,131.259674 
	C225.260162,118.846550 232.108231,106.363503 239.014282,93.912941 
	C242.549240,87.539948 246.167542,81.211983 249.613235,74.791237 
	C251.118820,71.985695 252.029236,72.298447 253.436798,74.877205 
	C262.902985,92.220284 272.423798,109.533775 281.984253,126.825157 
	C295.539795,151.342163 308.988464,175.920197 322.776367,200.306168 
	C334.485809,221.016037 346.468903,241.575027 358.590363,262.047119 
	C372.031891,284.748718 385.775421,307.271393 399.372223,329.881134 
	C405.377289,339.866852 411.396698,349.844879 417.265045,359.910675 
	C418.013245,361.194031 417.883850,362.989014 418.205688,364.798126 
	C333.335083,364.798126 248.905518,364.798126 163.360870,364.798126 
	C164.716385,361.472412 165.521286,358.414856 167.097458,355.827087 
	C172.530457,346.907288 178.630051,338.367279 183.603928,329.209137 
	C185.213379,326.245758 186.883743,327.063385 188.632477,327.060181 
	C230.788727,326.983124 272.945129,327.000153 315.101532,327.000153 
	C329.538513,327.000153 343.975494,327.000153 359.187500,327.000153 
	C323.127472,264.493042 287.396667,202.556625 251.499069,140.331070 
	C243.613037,154.047989 235.826019,167.678848 227.955063,181.261063 
	C218.551971,197.487122 209.052811,213.657486 199.641312,229.878693 
	C192.741455,241.770950 185.886887,253.689743 179.064514,265.626648 
	C171.206329,279.375854 163.431091,293.172455 155.570557,306.920288 
	C151.080246,314.773682 146.491760,322.570953 141.724487,330.696899 
z"/>
<path fill="#FFD700" opacity="1.000000" stroke="none" 
	d="
M359.887695,377.999817 
	C362.813202,377.999786 365.258423,377.999786 367.703644,377.999786 
	C367.971680,378.476837 368.239716,378.953888 368.507782,379.430939 
	C359.828674,386.297180 351.330536,393.408936 342.427490,399.971405 
	C329.464111,409.526733 315.051239,416.644043 299.904480,421.810669 
	C285.883545,426.593231 271.401733,429.027252 256.290894,429.292725 
	C234.181152,429.681122 212.943802,426.988953 192.726608,417.965637 
	C179.502869,412.063690 166.279297,406.143250 155.003082,396.650940 
	C149.313339,391.861328 142.914429,387.922272 137.030594,383.348511 
	C135.761780,382.362213 135.329086,380.300232 134.129730,378.002960 
	C152.149139,378.002960 168.970551,377.567627 185.747879,378.237091 
	C191.686813,378.474060 197.588837,381.194885 203.385529,383.144958 
	C220.505554,388.904297 237.966782,393.255768 256.101562,391.798706 
	C267.026886,390.920898 277.868225,388.390961 288.605560,385.973694 
	C297.066803,384.068878 305.300232,381.162323 313.661530,378.794891 
	C315.360352,378.313934 317.177429,378.041748 318.941650,378.033691 
	C332.429993,377.972168 345.918762,377.999908 359.887695,377.999817 
z"/>
<path fill="#FFD700" opacity="1.000000" stroke="none" 
	d="
M92.259277,245.437256 
	C94.694145,227.554901 99.815117,210.894882 107.525543,195.131607 
	C111.589371,186.823486 116.087051,178.546371 121.630836,171.191391 
	C127.883377,162.896103 134.890778,154.916092 142.712067,148.111893 
	C157.180176,135.525208 173.185898,125.036865 191.190521,117.955078 
	C198.549118,115.060699 205.911469,112.175568 213.289185,109.330513 
	C213.993683,109.058838 214.820206,109.103516 216.444901,108.887863 
	C212.967575,115.263123 209.942307,121.034126 206.710037,126.686783 
	C200.771561,137.072098 194.856735,147.477005 188.604172,157.672653 
	C186.940475,160.385544 184.413223,162.877213 181.726562,164.607147 
	C151.493820,184.073822 133.672989,212.376999 125.319862,246.516510 
	C121.361603,262.694061 114.832993,277.614807 108.612839,292.796631 
	C105.694031,299.920685 102.527527,306.943268 99.473289,314.011841 
	C98.967545,314.103607 98.461807,314.195374 97.956062,314.287140 
	C95.971062,307.315063 93.002426,300.450104 92.228775,293.346100 
	C91.031693,282.354004 91.189720,271.200195 91.067566,260.111725 
	C91.015228,255.360199 91.702507,250.600525 92.259277,245.437256 
z"/>
<path fill="#FFD700" opacity="1.000000" stroke="none" 
	d="
M372.311401,228.741272 
	C367.188782,215.617920 360.736267,203.603394 352.183899,192.947281 
	C348.212219,187.998611 342.652344,184.342636 337.949585,179.953690 
	C336.099854,178.227417 334.715576,176.012375 332.952759,174.180145 
	C331.271545,172.432709 329.635712,170.319946 327.528015,169.357239 
	C314.720428,163.507202 310.647095,150.734085 304.089844,140.025650 
	C298.021423,130.115479 292.609619,119.803223 286.064514,108.167328 
	C295.889221,111.913605 304.495819,114.821434 312.794312,118.436516 
	C330.812805,126.285927 346.967041,137.285065 361.703369,150.104340 
	C373.571777,160.428802 383.112152,173.010193 390.888824,186.711166 
	C399.138763,201.246048 405.213165,216.736206 408.556030,233.149734 
	C411.353546,246.885696 412.336273,260.800537 412.091217,274.852417 
	C411.910522,285.212677 411.328827,295.434021 407.984497,305.313629 
	C406.976135,308.292450 405.670715,311.170654 404.293579,314.614563 
	C390.362762,286.804749 379.907623,258.506348 372.311401,228.741272 
z"/>
<path fill="#FFD700" opacity="1.000000" stroke="none" 
	d="
M209.078217,292.002289 
	C205.816406,292.002289 203.042114,292.002289 199.229904,292.002289 
	C203.782654,284.327179 207.888199,277.442047 211.958908,270.536438 
	C222.369537,252.875702 232.701202,235.167801 243.241562,217.584946 
	C244.652420,215.231445 246.898605,213.250275 249.098785,211.533432 
	C251.429108,209.715027 252.805023,211.560989 254.040787,213.491440 
	C261.981445,225.895981 270.030396,238.231506 277.928040,250.663223 
	C285.729279,262.943237 293.401367,275.305450 301.106598,287.646271 
	C301.850952,288.838501 302.429260,290.134399 303.410370,292.002289 
	C271.674469,292.002289 240.620102,292.002289 209.078217,292.002289 
z"/>
</svg>